# xmcd
# 
# Track frame offsets:
#     150
#     19745
#     43497
#     63080
# 
# Disc length: 1155
# 
# Revision: 2
# Processed by: cddbd v1.5.2PL0 Copyright (c) Steve Scherf et al.
# Submitted via: fre:ac v1.0.17
# 
DISCID=2f048104
DTITLE=氣志團 - 喧嘩上等
DYEAR=2014
DGENRE=JPop
TTITLE0=喧嘩上等
TTITLE1=友よ
TTITLE2=喧嘩上等（カラオケver.）
TTITLE3=友よ（カラオケver.）
EXTD=
EXTT0=
EXTT1=
EXTT2=
EXTT3=
PLAYORDER=
